HIERARCHY
ROOT Hips
{
	OFFSET 0.00000 0.00000 0.00000
	CHANNELS 6 Xposition Yposition Zposition Zrotation Yrotation Xrotation 
	JOINT LHipJoint
	{
		OFFSET 0 0 0
		CHANNELS 3 Zrotation Yrotation Xrotation
		JOINT LeftUpLeg
		{
			OFFSET 1.75344 -1.53157 0.77399
			CHANNELS 3 Zrotation Yrotation Xrotation
			JOINT LeftLeg
			{
				OFFSET 2.25415 -6.19323 0.00000
				CHANNELS 3 Zrotation Yrotation Xrotation
				JOINT LeftFoot
				{
					OFFSET 2.30342 -6.32861 0.00000
					CHANNELS 3 Zrotation Yrotation Xrotation
					JOINT LeftToeBase
					{
						OFFSET 0.10958 -0.30108 1.49206
						CHANNELS 3 Zrotation Yrotation Xrotation
						End Site
						{
							OFFSET 0.00000 -0.00000 0.77783
						}
					}
				}
			}
		}
	}
	JOINT RHipJoint
	{
		OFFSET 0 0 0
		CHANNELS 3 Zrotation Yrotation Xrotation
		JOINT RightUpLeg
		{
			OFFSET -1.81912 -1.53156 0.77399
			CHANNELS 3 Zrotation Yrotation Xrotation
			JOINT RightLeg
			{
				OFFSET -2.22882 -6.12365 0.00000
				CHANNELS 3 Zrotation Yrotation Xrotation
				JOINT RightFoot
				{
					OFFSET -2.21943 -6.09785 0.00000
					CHANNELS 3 Zrotation Yrotation Xrotation
					JOINT RightToeBase
					{
						OFFSET -0.18931 -0.52012 1.59379
						CHANNELS 3 Zrotation Yrotation Xrotation
						End Site
						{
							OFFSET -0.00000 -0.00000 0.84686
						}
					}
				}
			}
		}
	}
	JOINT LowerBack
	{
		OFFSET 0 0 0
		CHANNELS 3 Zrotation Yrotation Xrotation
		JOINT Spine
		{
			OFFSET -0.00200 1.66634 -0.14248
			CHANNELS 3 Zrotation Yrotation Xrotation
			JOINT Spine1
			{
				OFFSET -0.00875 1.64542 0.09514
				CHANNELS 3 Zrotation Yrotation Xrotation
				JOINT Neck
				{
					OFFSET 0 0 0
					CHANNELS 3 Zrotation Yrotation Xrotation
					JOINT Neck1
					{
						OFFSET 0.02257 1.59605 0.00839
						CHANNELS 3 Zrotation Yrotation Xrotation
						JOINT Head
						{
							OFFSET -0.10214 1.57530 -0.23335
							CHANNELS 3 Zrotation Yrotation Xrotation
							End Site
							{
								OFFSET -0.03588 1.60717 -0.08062
							}
						}
					}
				}
				JOINT LeftShoulder
				{
					OFFSET 0 0 0
					CHANNELS 3 Zrotation Yrotation Xrotation
					JOINT LeftArm
					{
						OFFSET 2.54983 1.10186 0.40078
						CHANNELS 3 Zrotation Yrotation Xrotation
						JOINT LeftForeArm
						{
							OFFSET 4.28840 -0.00000 0.00000
							CHANNELS 3 Zrotation Yrotation Xrotation
							JOINT LeftHand
							{
								OFFSET 3.06552 -0.00000 -0.00000
								CHANNELS 3 Zrotation Yrotation Xrotation
								JOINT LeftFingerBase
								{
									OFFSET 0 0 0
									CHANNELS 3 Zrotation Yrotation Xrotation
									JOINT LeftHandIndex1
									{
										OFFSET 0.75304 -0.00000 0.00000
										CHANNELS 3 Zrotation Yrotation Xrotation
										End Site
										{
											OFFSET 0.60712 -0.00000 0.00000
										}
									}
								}
								JOINT LThumb
								{
									OFFSET 0 0 0
									CHANNELS 3 Zrotation Yrotation Xrotation
									End Site
									{
										OFFSET 0.61639 -0.00000 0.61639
									}
								}
							}
						}
					}
				}
				JOINT RightShoulder
				{
					OFFSET 0 0 0
					CHANNELS 3 Zrotation Yrotation Xrotation
					JOINT RightArm
					{
						OFFSET -2.60909 1.35448 0.21802
						CHANNELS 3 Zrotation Yrotation Xrotation
						JOINT RightForeArm
						{
							OFFSET -4.52172 -0.00000 -0.00000
							CHANNELS 3 Zrotation Yrotation Xrotation
							JOINT RightHand
							{
								OFFSET -2.89140 -0.00000 0.00000
								CHANNELS 3 Zrotation Yrotation Xrotation
								JOINT RightFingerBase
								{
									OFFSET 0 0 0
									CHANNELS 3 Zrotation Yrotation Xrotation
									JOINT RightHandIndex1
									{
										OFFSET -0.68054 -0.00000 0.00000
										CHANNELS 3 Zrotation Yrotation Xrotation
										End Site
										{
											OFFSET -0.54867 -0.00000 0.00000
										}
									}
								}
								JOINT RThumb
								{
									OFFSET 0 0 0
									CHANNELS 3 Zrotation Yrotation Xrotation
									End Site
									{
										OFFSET -0.55705 -0.00000 0.55705
									}
								}
							}
						}
					}
				}
			}
		}
	}
}
MOTION
Frames: 14
Frame Time: .0083333
8.8075 15.5494 21.0638 0 0 0 0 0 0 -21 0 0 0 0 0 0 0 0 0 0 0 0 0 0 21 0 0 0 0 0 0 0 0 0 0 0 0 0 0 0 0 0 0 0 0 0 0 -16 0 0 21 0 0 11 0 0 0 -8 0 0 0 0 0 0 0 0 0 0 0 0 0 0 0 0 0 0 0 0 8 0 0 0 0 0 0 0 0 0 0 0 0 0 0 0 0 0
8.8075 15.5494 21.0638 -179.0520 -1.7010 -179.4730 0.0000 0.0000 0.0000 -23.6788 -22.9653 2.9110 1.5028 7.7430 21.9363 1.4171 8.5217 -27.0147 0.4734 -4.4126 -12.2405 0.0000 0.0000 0.0000 28.6447 15.5430 10.4392 -0.2291 -3.0808 8.5038 1.7971 -26.1991 -23.8793 -0.0484 -1.4203 3.9061 2.2033 2.3317 8.8303 -0.0474 3.3670 -3.6188 -1.8267 1.4984 -8.6685 -9.2221 -4.5997 -3.7028 9.1282 -6.5989 8.6223 3.9771 -3.2710 3.7732 -0.0000 -0.0000 0.0000 -71.0989 18.0379 -7.8432 18.7210 -29.0706 -4.8946 -0.0000 -0.0000 9.7942 1.3325 -32.0781 -0.7077 -7.1250 0.0000 -0.0000 -17.0595 -0.8914 18.1416 -0.0000 -0.0000 0.0000 74.5564 -20.2426 1.4580 -17.3566 27.3255 -4.2498 0.0000 0.0000 30.9838 -20.5372 -52.1984 16.4890 7.1250 -0.0000 -0.0000 59.8569 -78.8701 -49.6347
8.8051 15.5503 21.0637 -179.1850 -1.5459 -179.4230 0.0000 0.0000 0.0000 -23.8601 -23.0090 3.0328 1.4750 7.6742 21.7288 1.4030 8.7795 -27.0959 0.4930 -4.5020 -12.4934 0.0000 0.0000 0.0000 28.5064 15.7775 10.2660 -0.2522 -3.2312 8.9231 1.7018 -25.9787 -24.3397 -0.0609 -1.5920 4.3793 2.1006 2.3031 8.7946 -0.0745 3.3126 -3.6244 -1.7879 1.4770 -8.6600 -9.3021 -4.5828 -3.7979 9.2112 -6.5834 8.7439 4.0141 -3.2616 3.8293 0.0000 0.0000 0.0000 -71.2390 18.6848 -7.4093 18.9282 -29.3294 -4.9956 -0.0000 -0.0000 9.2643 1.4949 -32.3321 -0.7997 -7.1250 0.0000 -0.0000 -16.9743 -1.1477 18.1189 0.0000 0.0000 0.0000 74.4759 -20.5492 1.8537 -17.2460 27.1810 -4.1991 0.0000 0.0000 30.7504 -21.2021 -52.6524 17.1389 7.1250 -0.0000 -0.0000 61.9072 -79.2888 -51.9192
8.8017 15.5516 21.0660 -179.3070 -1.3834 -179.3450 0.0000 0.0000 0.0000 -24.0067 -23.0370 3.0223 1.4656 7.6509 21.6585 1.3978 8.9455 -27.1775 0.4776 -4.4321 -12.2956 0.0000 0.0000 0.0000 28.3441 16.0087 10.1392 -0.2647 -3.3097 9.1421 1.6423 -25.8254 -24.5813 -0.0825 -1.8529 5.0992 2.0024 2.2864 8.7825 -0.0834 3.2765 -3.6631 -1.7373 1.4631 -8.7011 -9.3540 -4.5364 -3.7990 9.2172 -6.5220 8.7904 4.0280 -3.2332 3.8394 0.0000 0.0000 0.0000 -71.3931 19.1647 -7.1947 18.9016 -29.2962 -4.9826 -0.0000 -0.0000 9.1806 1.8594 -32.4439 -0.9978 -7.1250 0.0000 -0.0000 -16.7774 -1.2861 17.9298 0.0000 0.0000 0.0000 74.4429 -20.9157 2.1794 -17.1731 27.0854 -4.1658 0.0000 0.0000 30.8859 -21.4475 -52.6718 17.3481 7.1250 -0.0000 -0.0000 61.9396 -79.3963 -52.0558
8.8001 15.5511 21.0691 -179.3210 -1.2517 -179.3370 0.0000 0.0000 0.0000 -24.0385 -23.0329 3.0528 1.4578 7.6314 21.5999 1.4012 9.0115 -27.2497 0.4461 -4.2854 -11.8811 0.0000 0.0000 0.0000 28.3358 16.1702 10.0845 -0.2736 -3.3644 9.2949 1.6489 -25.8706 -24.6236 -0.0886 -1.9193 5.2827 1.9848 2.2574 8.8487 -0.0555 3.2392 -3.6866 -1.6960 1.4450 -8.7696 -9.3630 -4.4855 -3.7986 9.1999 -6.4526 8.8125 4.0283 -3.2003 3.8390 0.0000 -0.0000 0.0000 -71.5942 19.6722 -6.9659 18.8614 -29.2460 -4.9629 -0.0000 -0.0000 9.1798 2.0909 -32.9909 -1.1389 -7.1250 0.0000 -0.0000 -16.6625 -1.8297 17.9532 0.0000 -0.0000 0.0000 74.4617 -21.3930 2.5561 -17.1602 27.0685 -4.1600 0.0000 0.0000 31.2339 -21.5955 -52.4565 17.4248 7.1250 -0.0000 -0.0000 60.7783 -79.3931 -50.9887
8.7994 15.5526 21.0741 -179.2680 -1.2122 -179.2920 0.0000 0.0000 0.0000 -23.9615 -23.1224 3.0275 1.4554 7.6252 21.5812 1.4281 8.9866 -27.4234 0.4297 -4.2067 -11.6589 0.0000 0.0000 0.0000 28.3753 16.2578 9.9813 -0.2781 -3.3916 9.3710 1.6610 -25.9234 -24.6273 -0.0867 -1.8992 5.2273 2.0380 2.2322 8.9186 -0.0422 3.2146 -3.7236 -1.7122 1.4281 -8.8497 -9.1528 -4.4778 -3.8552 9.0110 -6.4325 8.8291 3.9352 -3.1891 3.8391 -0.0000 -0.0000 0.0000 -71.7725 19.9985 -6.8560 18.7654 -29.1262 -4.9162 -0.0000 -0.0000 9.2868 1.9583 -33.8812 -1.0920 -7.1250 0.0000 -0.0000 -16.7553 -2.6691 18.3035 -0.0000 -0.0000 0.0000 74.6219 -21.9256 2.8533 -17.1589 27.0667 -4.1594 0.0000 0.0000 31.5562 -21.2907 -52.6587 17.2142 7.1250 -0.0000 -0.0000 61.9143 -79.3274 -51.9640
8.7972 15.5567 21.0788 -179.2710 -1.1667 -179.1920 0.0000 0.0000 0.0000 -23.9263 -23.2142 2.9239 1.4561 7.6270 21.5869 1.4333 9.0332 -27.4943 0.4351 -4.2326 -11.7321 0.0000 0.0000 0.0000 28.3340 16.3603 9.8743 -0.2784 -3.3939 9.3775 1.6767 -25.9596 -24.5537 -0.0781 -1.8027 4.9608 2.0265 2.2067 8.9446 -0.0105 3.1811 -3.7807 -1.6696 1.4106 -8.9309 -8.9777 -4.4547 -3.9001 8.7327 -6.3767 8.8364 3.8226 -3.1639 3.8297 -0.0000 -0.0000 0.0000 -72.1121 20.3062 -6.8090 18.6793 -29.0183 -4.8743 -0.0000 -0.0000 9.4461 1.9170 -34.3090 -1.0808 -7.1250 0.0000 -0.0000 -16.7888 -3.0742 18.4585 -0.0000 -0.0000 0.0000 74.7269 -22.3400 3.2263 -17.0842 26.9687 -4.1255 0.0000 0.0000 31.8444 -20.4366 -53.3688 16.6482 7.1250 -0.0000 -0.0000 65.7749 -79.1630 -55.3642
8.7961 15.5581 21.0808 -179.2760 -1.0877 -179.1690 0.0000 0.0000 0.0000 -23.9096 -23.1359 2.8499 1.4573 7.6300 21.5957 1.4056 9.1636 -27.3915 0.5115 -4.5844 -12.7268 0.0000 0.0000 0.0000 28.3456 16.4357 9.9035 -0.2766 -3.3828 9.3464 1.6879 -25.9771 -24.4809 -0.0685 -1.6886 4.6459 1.9936 2.1557 9.0037 0.0431 3.1141 -3.8075 -1.5871 1.3797 -9.0023 -8.9865 -4.3750 -3.9710 8.6370 -6.2534 8.8912 3.8001 -3.1047 3.8443 0.0000 0.0000 0.0000 -72.5905 20.6282 -6.8796 18.5712 -28.8824 -4.8220 -0.0000 -0.0000 9.9283 2.3432 -34.2763 -1.3202 -7.1250 0.0000 -0.0000 -16.5603 -3.0827 18.1871 0.0000 0.0000 0.0000 74.7781 -22.6926 3.9024 -16.9518 26.7942 -4.0656 0.0000 0.0000 32.0490 -20.0381 -53.6844 16.3771 7.1250 -0.0000 -0.0000 67.4572 -79.0706 -56.8383
8.7961 15.5563 21.0839 -179.2370 -1.0236 -179.1820 0.0000 0.0000 0.0000 -23.8719 -23.1153 2.8591 1.4562 7.6273 21.5877 1.3844 9.3012 -27.3412 0.5782 -4.8693 -13.5360 0.0000 0.0000 0.0000 28.3935 16.4989 9.9146 -0.2767 -3.3832 9.3475 1.6974 -25.9933 -24.4220 -0.0655 -1.6518 4.5444 2.0286 2.1213 9.1084 0.0667 3.0771 -3.8198 -1.5809 1.3588 -9.0781 -8.8845 -4.3206 -4.0071 8.5631 -6.1736 8.8749 3.7647 -3.0635 3.8329 0.0000 -0.0000 0.0000 -73.0267 20.8700 -6.9353 18.4345 -28.7100 -4.7561 -0.0000 -0.0000 10.5605 2.9198 -34.5113 -1.6552 -7.1250 0.0000 -0.0000 -16.2600 -3.3634 17.9053 0.0000 -0.0000 0.0000 74.9671 -23.1599 4.6013 -16.8467 26.6552 -4.0183 0.0000 0.0000 32.2527 -19.9447 -53.4279 16.2477 7.1250 -0.0000 -0.0000 66.1596 -78.9765 -55.5307
8.7944 15.5560 21.0871 -179.2030 -0.9819 -179.1660 0.0000 0.0000 0.0000 -23.8459 -23.1894 2.8919 1.4536 7.6208 21.5682 1.3968 9.2786 -27.4127 0.5391 -4.7045 -13.0675 0.0000 0.0000 0.0000 28.4166 16.5627 9.8714 -0.2802 -3.4044 9.4066 1.6757 -25.9444 -24.5267 -0.0752 -1.7693 4.8684 2.0501 2.0900 9.1610 0.1050 3.0422 -3.8383 -1.5494 1.3403 -9.1317 -8.6735 -4.2766 -3.9216 8.3206 -6.0989 8.7568 3.6620 -3.0298 3.7630 -0.0000 -0.0000 0.0000 -73.5317 21.1650 -6.9901 18.3361 -28.5854 -4.7089 -0.0000 -0.0000 11.0396 3.0716 -35.1170 -1.7681 -7.1250 0.0000 -0.0000 -16.2018 -3.9587 17.9957 -0.0000 -0.0000 0.0000 75.1799 -23.6632 5.2364 -16.7511 26.5285 -3.9755 0.0000 0.0000 32.5259 -19.7738 -53.3604 16.0912 7.1250 -0.0000 -0.0000 65.8487 -78.8913 -55.1540
8.7910 15.5556 21.0864 -179.2200 -0.8746 -179.1600 0.0000 0.0000 0.0000 -23.8830 -23.1637 2.9182 1.4508 7.6138 21.5472 1.4152 9.2411 -27.5161 0.4882 -4.4800 -12.4311 0.0000 0.0000 0.0000 28.4039 16.6749 9.8789 -0.2848 -3.4321 9.4841 1.6765 -25.9670 -24.5732 -0.0726 -1.7384 4.7831 2.0179 2.0789 9.1392 0.1404 3.0250 -3.8408 -1.4900 1.3349 -9.1258 -8.5391 -4.2120 -3.8367 8.1074 -5.9986 8.6905 3.5821 -2.9853 3.7101 0.0000 0.0000 0.0000 -74.1086 21.4538 -7.0705 18.2173 -28.4346 -4.6523 -0.0000 -0.0000 11.3783 3.0312 -35.4700 -1.7600 -7.1250 0.0000 -0.0000 -16.2374 -4.2927 18.1277 0.0000 0.0000 0.0000 75.4216 -24.1141 5.8728 -16.6149 26.3473 -3.9149 0.0000 0.0000 32.7698 -19.2305 -53.9432 15.7490 7.1250 -0.0000 -0.0000 68.8622 -78.7973 -57.8709
8.7865 15.5535 21.0824 -179.2680 -0.6990 -179.1690 0.0000 0.0000 0.0000 -24.0019 -23.1626 3.0051 1.4472 7.6048 21.5200 1.4213 9.3781 -27.6596 0.4766 -4.4275 -12.2825 0.0000 0.0000 0.0000 28.2973 16.6011 9.8040 -0.2888 -3.4560 9.5511 1.6897 -25.8882 -24.2429 -0.0546 -1.5077 4.1468 1.9932 2.0958 9.0753 0.1436 3.0429 -3.8227 -1.4723 1.3465 -9.0693 -8.4947 -4.1438 -3.8413 8.0724 -5.9031 8.6712 3.5695 -2.9376 3.6946 0.0000 0.0000 0.0000 -74.7073 21.7085 -7.0657 18.0913 -28.2739 -4.5924 -0.0000 -0.0000 11.5895 3.1664 -34.6511 -1.8016 -7.1250 0.0000 -0.0000 -16.1335 -3.5219 17.7968 0.0000 0.0000 0.0000 75.7626 -24.5564 6.4859 -16.4453 26.1207 -3.8399 0.0000 0.0000 32.7547 -18.4063 -54.4659 15.1526 7.1250 -0.0000 -0.0000 71.5316 -78.5593 -60.1395
8.7843 15.5532 21.0801 -179.3050 -0.5680 -179.1690 0.0000 0.0000 0.0000 -24.0812 -23.1757 3.0637 1.4436 7.5956 21.4925 1.4091 9.5788 -27.7211 0.5305 -4.6674 -12.9622 0.0000 0.0000 0.0000 28.2039 16.5091 9.7175 -0.2918 -3.4740 9.6012 1.6663 -25.7032 -24.0330 -0.0527 -1.4809 4.0731 1.9408 2.0815 9.0108 0.1695 3.0172 -3.7953 -1.4076 1.3395 -9.0064 -8.5095 -4.0413 -3.8855 8.1187 -5.7594 8.6316 3.5937 -2.8634 3.6794 -0.0000 -0.0000 0.0000 -75.3776 21.9590 -7.0708 17.9441 -28.0855 -4.5229 -0.0000 -0.0000 11.8439 3.4635 -32.9925 -1.8876 -7.1250 0.0000 -0.0000 -15.9167 -1.9611 17.1175 -0.0000 -0.0000 0.0000 76.1192 -24.9971 7.2048 -16.2692 25.8843 -3.7627 0.0000 0.0000 32.3947 -18.6354 -54.2724 15.3102 7.1250 -0.0000 -0.0000 70.5585 -78.6191 -59.2816
8.7846 15.5538 21.0810 -179.3190 -0.4866 -179.1270 0.0000 0.0000 0.0000 -24.0760 -23.1375 3.0104 1.4377 7.5807 21.4476 1.3367 9.9965 -27.5230 0.7006 -5.3500 -14.9097 0.0000 0.0000 0.0000 28.1935 16.6637 9.6847 -0.2955 -3.4956 9.6616 1.6529 -25.6815 -24.1208 -0.0551 -1.5153 4.1680 1.8870 2.0585 8.9723 0.1994 2.9808 -3.7831 -1.3379 1.3266 -8.9760 -8.4759 -3.9526 -3.9491 8.0808 -5.6277 8.6058 3.5829 -2.7960 3.6691 0.0000 -0.0000 0.0000 -76.0653 22.2240 -7.0325 17.8146 -27.9191 -4.4621 -0.0000 -0.0000 12.1059 3.7192 -32.2822 -1.9884 -7.1250 0.0000 -0.0000 -15.7557 -1.3044 16.7510 0.0000 -0.0000 0.0000 76.5773 -25.4520 7.8234 -16.1654 25.7444 -3.7175 0.0000 0.0000 32.3758 -19.3055 -54.0675 15.8357 7.1250 -0.0000 -0.0000 69.4841 -78.8502 -58.5112
